<svg version="1.1" xmlns="http://www.w3.org/2000/svg" xmlns:xlink="http://www.w3.org/1999/xlink" width="16.1427" height="16.25254" viewBox="0,0,16.1427,16.25254"><g transform="translate(-231.92865,-171.87585)"><g data-paper-data="{&quot;isPaintingLayer&quot;:true}" fill-rule="nonzero" stroke-linecap="butt" stroke-linejoin="miter" stroke-miterlimit="10" stroke-dasharray="" stroke-dashoffset="0" style="mix-blend-mode: normal"><g fill="#5ecaff" stroke="#4da3d0" stroke-width="0.5"><path d="M233.74247,182.5659v-5.81503h3.23291v5.81503z"/><path d="M236.92566,179.64716c0,1.60498 -0.71091,2.90607 -1.58786,2.90607c-0.87695,0 -1.58785,-1.30109 -1.58785,-2.90607c0,-1.60498 0.71091,-2.90607 1.58785,-2.90607c0.87695,0 1.58786,1.30109 1.58786,2.90607z"/></g><g fill="#5ecaff" stroke="#4da3d0" stroke-width="0.5"><path d="M236.71715,176.6476l5.81417,-0.10023l0.05572,3.23243l-5.81416,0.10022z"/><path d="M239.69032,179.78001c-1.60474,0.02767 -2.91789,-0.66071 -2.93301,-1.53752c-0.01512,-0.87681 1.27353,-1.61005 2.87827,-1.63771c1.60474,-0.02767 2.91789,0.66071 2.93301,1.53753c0.01512,0.87681 -1.27353,1.61004 -2.87826,1.6377z"/></g><g fill="#5ecaff" stroke="#4da3d0" stroke-width="0.5"><path d="M237.46971,172.17531l5.66857,1.29689l-0.72102,3.15148l-5.66856,-1.29689z"/><path d="M239.60501,175.92926c-1.56456,-0.35795 -2.67433,-1.34112 -2.47876,-2.19598c0.19558,-0.85486 1.62245,-1.25769 3.18701,-0.89974c1.56456,0.35795 2.67433,1.34113 2.47875,2.19599c-0.19558,0.85486 -1.62245,1.25768 -3.187,0.89973z"/></g><g fill="#5effe6" stroke="#4dd1c0" stroke-width="0.5"><path d="M246.39187,177.52236l-0.1334,5.81349l-3.23206,-0.07417l0.1334,-5.8135z"/><path d="M243.14256,180.36729c0.03682,-1.60456 0.7774,-2.889 1.65411,-2.86888c0.87672,0.02012 1.55758,1.33718 1.52076,2.94173c-0.03682,1.60456 -0.77738,2.88899 -1.6541,2.86888c-0.87672,-0.02012 -1.55759,-1.33718 -1.52077,-2.94173z"/></g><g fill="#5effe6" stroke="#4dd1c0" stroke-width="0.5"><path d="M243.28219,183.37085l-5.81494,-0.03319l0.01845,-3.23285l5.81494,0.03319z"/><path d="M240.38167,180.17106c1.60495,0.00916 2.90196,0.72748 2.89696,1.60441c-0.00501,0.87693 -1.31014,1.5804 -2.91509,1.57124c-1.60495,-0.00916 -2.90196,-0.72748 -2.89696,-1.60441c0.00501,-0.87693 1.31014,-1.5804 2.91509,-1.57124z"/></g><g fill="#5effe6" stroke="#4dd1c0" stroke-width="0.5"><path d="M242.42723,187.8247l-5.63733,-1.42659l0.79312,-3.1341l5.63733,1.42659z"/><path d="M240.37861,184.02274c1.55593,0.39374 2.64285,1.40212 2.42771,2.25227c-0.21514,0.85015 -1.65087,1.22013 -3.2068,0.82638c-1.55593,-0.39374 -2.64285,-1.40212 -2.42772,-2.25227c0.21514,-0.85015 1.65088,-1.22013 3.20681,-0.82638z"/></g><path d="M242.40029,186.16334c0,0.25098 -0.17064,0.45443 -0.38114,0.45443c-0.2105,0 -0.38114,-0.20345 -0.38114,-0.45443c0,-0.25098 0.17065,-0.45444 0.38114,-0.45444c0.2105,0 0.38114,0.20346 0.38114,0.45444z" fill="#000000" stroke="none" stroke-width="0"/><path d="M238.11979,173.82027c0,0.2024 -0.15751,0.36648 -0.35182,0.36648c-0.19431,0 -0.35182,-0.16408 -0.35182,-0.36648c0,-0.2024 0.15752,-0.36648 0.35182,-0.36648c0.19431,0 0.35182,0.16408 0.35182,0.36648z" fill="#000000" stroke="none" stroke-width="0"/><text transform="translate(235.73633,182.00012) scale(0.13844,0.13844)" font-size="40" xml:space="preserve" fill="#1b4bc5" fill-rule="nonzero" stroke="none" stroke-width="1" stroke-linecap="butt" stroke-linejoin="miter" stroke-miterlimit="10" stroke-dasharray="" stroke-dashoffset="0" font-family="Handwriting" font-weight="normal" text-anchor="start" style="mix-blend-mode: normal"><tspan x="0" dy="0">AM</tspan></text><path d="M231.92865,183.51036v-7.18689h16.1427v7.18689z" fill="none" stroke="none" stroke-width="none"/></g></g></svg>